<svg width="512" height="512" viewBox="0 0 512 512" fill="none" xmlns="http://www.w3.org/2000/svg" xmlns:xlink="http://www.w3.org/1999/xlink" class=""><rect id="r4" width="512" height="512" x="0" y="0" rx="128" fill="url(#r5)" stroke="#FFFFFF" stroke-width="0" stroke-opacity="100%" paint-order="stroke"></rect><clipPath id="clip"><use xlink:href="#r4"></use></clipPath><defs><linearGradient id="r5" gradientUnits="userSpaceOnUse" gradientTransform="rotate(135)" style="transform-origin: center center;"><stop stop-color="#000000"></stop><stop offset="1" stop-color="#000000"></stop></linearGradient><radialGradient id="r6" cx="0" cy="0" r="1" gradientUnits="userSpaceOnUse" gradientTransform="translate(256) rotate(90) scale(512)"><stop stop-color="white"></stop><stop offset="1" stop-color="white" stop-opacity="0"></stop></radialGradient></defs><svg xmlns="http://www.w3.org/2000/svg" width="375" height="375" fill="#ededed" viewBox="0 0 256 256" x="68.5" y="68.5" alignment-baseline="middle" style="color: rgb(255, 255, 255);"><path d="M160,80H48A16,16,0,0,0,32,96V208a16,16,0,0,0,16,16H160a16,16,0,0,0,16-16V96A16,16,0,0,0,160,80Zm0,128H48V96H160ZM136,40a8,8,0,0,1,8-8h16a8,8,0,0,1,0,16H144A8,8,0,0,1,136,40Zm88,8v8a8,8,0,0,1-16,0V48h-8a8,8,0,0,1,0-16h8A16,16,0,0,1,224,48Zm0,48v16a8,8,0,0,1-16,0V96a8,8,0,0,1,16,0Zm0,56v8a16,16,0,0,1-16,16h-8a8,8,0,0,1,0-16h8v-8a8,8,0,0,1,16,0ZM80,56V48A16,16,0,0,1,96,32h8a8,8,0,0,1,0,16H96v8a8,8,0,0,1-16,0Z"></path></svg></svg>