<svg width="512" height="512" viewBox="0 0 512 512" fill="none" xmlns="http://www.w3.org/2000/svg" xmlns:xlink="http://www.w3.org/1999/xlink" class=""><rect id="r4" width="512" height="512" x="0" y="0" rx="128" fill="url(#r5)" stroke="#FFFFFF" stroke-width="0" stroke-opacity="100%" paint-order="stroke"></rect><rect width="512" height="512" x="0" y="0" fill="url(#r6)" rx="128" style="mix-blend-mode: overlay;"></rect><clipPath id="clip"><use xlink:href="#r4"></use></clipPath><defs><linearGradient id="r5" gradientUnits="userSpaceOnUse" gradientTransform="rotate(135)" style="transform-origin: center center;"><stop stop-color="#161616"></stop><stop offset="1" stop-color="#161616"></stop></linearGradient><radialGradient id="r6" cx="0" cy="0" r="1" gradientUnits="userSpaceOnUse" gradientTransform="translate(256) rotate(90) scale(512)"><stop stop-color="white"></stop><stop offset="1" stop-color="white" stop-opacity="0"></stop></radialGradient></defs><svg width="250" height="250" stroke-width="0.9" viewBox="0 0 24 24" fill="none" xmlns="http://www.w3.org/2000/svg" color="#d6d6d6" x="131" y="131" alignment-baseline="middle" style="color: rgb(255, 255, 255);"><path d="M21 9.6v10.8a.6.6 0 01-.6.6H9.6a.6.6 0 01-.6-.6V9.6a.6.6 0 01.6-.6h10.8a.6.6 0 01.6.6z" stroke="#d6d6d6" stroke-width="0.9" stroke-linecap="round" stroke-linejoin="round"></path><path d="M15 3.6v10.8a.6.6 0 01-.6.6H3.6a.6.6 0 01-.6-.6V3.6a.6.6 0 01.6-.6h10.8a.6.6 0 01.6.6z" stroke="#d6d6d6" stroke-width="0.9" stroke-linecap="round" stroke-linejoin="round"></path></svg></svg>